<?xml version="1.0" encoding="UTF-8"?><svg id="Layer_2" xmlns="http://www.w3.org/2000/svg" xmlns:xlink="http://www.w3.org/1999/xlink" viewBox="0 0 999.3 551.82"><defs><style>.cls-1{fill:url(#linear-gradient-2);}.cls-2{fill:url(#linear-gradient-6);}.cls-3{font-size:200px;}.cls-3,.cls-4{fill:#fff;font-family:WesFYW03-Black, WesFYW03-Black;}.cls-5{fill:url(#linear-gradient-5);}.cls-4{font-size:24px;}.cls-6{fill:url(#linear-gradient-7);}.cls-7{fill:url(#linear-gradient-3);}.cls-8{fill:url(#linear-gradient);}.cls-9{letter-spacing:-.01em;}.cls-10{fill:url(#linear-gradient-4);}</style><linearGradient id="linear-gradient" x1="266.6" y1="126.46" x2="762.69" y2="126.46" gradientTransform="matrix(1, 0, 0, 1, 0, 0)" gradientUnits="userSpaceOnUse"><stop offset="0" stop-color="#f59e1e"/><stop offset=".19" stop-color="#f5a224"/><stop offset=".5" stop-color="#f8af3b"/><stop offset=".89" stop-color="#f8d762"/><stop offset="1" stop-color="#f4e47b"/></linearGradient><linearGradient id="linear-gradient-2" x1="541.46" y1="152.13" x2="691.16" y2="152.13" xlink:href="#linear-gradient"/><linearGradient id="linear-gradient-3" x1="339.34" y1="151.98" x2="488.79" y2="151.98" xlink:href="#linear-gradient"/><linearGradient id="linear-gradient-4" x1="451.8" y1="133.04" x2="577.94" y2="133.04" xlink:href="#linear-gradient"/><linearGradient id="linear-gradient-5" x1="564.49" y1="221.82" x2="712.63" y2="221.82" xlink:href="#linear-gradient"/><linearGradient id="linear-gradient-6" x1="316.53" y1="221.03" x2="465.82" y2="221.03" xlink:href="#linear-gradient"/><linearGradient id="linear-gradient-7" x1="487.67" y1="264.9" x2="539.79" y2="264.9" xlink:href="#linear-gradient"/></defs><g id="Layer_1-2"><g><text class="cls-3" transform="translate(92.96 505.82)"><tspan x="0" y="0">ZestHub</tspan></text><text class="cls-4" transform="translate(901.36 377.89)"><tspan class="cls-9" x="0" y="0">T</tspan><tspan x="13.15" y="0">M</tspan></text><path class="cls-8" d="M746.1,252.83c-3.5,0-7.02-.21-10.5,.05-4.72,.36-5.99-1.9-6.01-6.21-.04-7.78,.09-15.63-.97-23.3-1.47-10.69-3.24-21.44-6.16-31.8-8.34-29.63-21.53-56.89-41.52-80.59-34.51-40.92-77.86-66.75-130.84-75.17-15.47-2.46-31.48-3.57-47.1-2.74-48.03,2.55-90.57,19.79-127.39,50.94-22.96,19.43-40.96,42.77-54.29,69.6-10.29,20.72-17.11,42.64-19.67,65.71-1,9.04-1.59,18.14-1.88,27.23-.15,4.71-1.73,6.55-6.52,6.35-7.15-.3-14.34-.24-21.49-.01-3.96,.12-5.16-1.37-5.16-5.26,0-27.57,4.65-54.3,13.45-80.41,8.78-26.06,21.58-49.98,38.47-71.54,24.73-31.56,55.04-56.39,91.74-73.07,21.93-9.96,44.69-17.2,68.67-19.84,13.67-1.5,27.48-3.05,41.18-2.75,33.03,.71,64.88,7.56,95.21,21.04,32.65,14.51,60.78,35.24,84.66,61.66,20.9,23.13,36.52,49.58,47.49,78.76,7.19,19.12,11.67,38.92,13.97,59.16,1.04,9.21,.83,18.57,1.24,27.85,.15,3.31-1.5,4.42-4.58,4.34-4-.1-8-.03-12-.02Z"/><path class="cls-1" d="M691.16,164.14c-.02,5.35-3.65,7.44-7.63,9.06-13.55,5.52-27.16,10.89-40.71,16.41-29.1,11.85-58.19,23.73-87.26,35.68-4.17,1.71-8.1,2.29-11.57-1.11-3.52-3.46-2.84-7.56-1.14-11.6,17.83-42.28,35.66-84.56,53.53-126.82,3.73-8.82,7.5-10.22,15.88-5.52,33.24,18.64,58.69,45,77.02,78.31,.93,1.69,1.26,3.72,1.88,5.59Z"/><path class="cls-7" d="M488.79,216.79c-.12,8.05-5.8,11.55-12.8,8.78-11.14-4.39-22.17-9.05-33.25-13.6-31.84-13.09-63.67-26.2-95.51-39.28-8.24-3.39-9.87-7.38-5.61-15.15,18.05-32.92,43.38-58.73,76.12-77.16,9.11-5.12,12.96-3.73,16.95,5.78,17.44,41.55,34.86,83.12,52.24,124.7,.95,2.27,1.48,4.71,1.86,5.93Z"/><path class="cls-10" d="M480.74,58.11c13-2.63,26.25-3.85,39.5-3.36h.22c16.61,.65,33.06,2.59,49.09,7.26,7.71,2.25,10.17,7.07,7.13,14.5-17.19,42.02-34.44,84-51.68,126-.13,.31-.25,.62-.38,.93-1.73,4.23-4.48,8.08-9.18,8-4.81-.08-7.81-3.9-9.68-8.26-4.93-11.46-9.97-22.86-14.76-34.38-12.56-30.25-25.01-60.54-37.5-90.82-3.68-8.92-1.54-13.56,7.95-15.74,6.42-1.48,12.88-2.82,19.29-4.11Z"/><path class="cls-5" d="M638.68,253.56c-22.14,0-44.28,0-66.42,0-3.5,0-6.84-.47-7.64-4.72-.78-4.14,1.78-5.83,5.22-7.23,40.04-16.25,80.04-32.61,120.06-48.92,11.37-4.63,13.42-3.95,15.98,8.15,2.56,12.07,3.92,24.4,5.77,36.61,.42,2.76,.9,5.54,.96,8.32,.13,6.15-1.46,7.77-7.52,7.81-10.99,.06-21.97,.02-32.96,.02-11.15,0-22.31,0-33.46,0v-.04Z"/><path class="cls-2" d="M391.27,252.84c-21.83,0-43.66-.2-65.49,.1-7.87,.11-9.96-3.3-9.06-10.43,1.23-9.75,2.47-19.51,4.11-29.2,.98-5.78,2.44-11.53,4.2-17.13,2.43-7.69,4.7-8.56,12.19-5.5,12.63,5.15,25.25,10.34,37.87,15.52,27.7,11.36,55.41,22.72,83.11,34.08,1.08,.44,2.16,.9,3.19,1.44,2.84,1.49,5.05,3.47,4.27,7.06-.81,3.69-3.64,4.25-6.91,4.24-22.49-.04-44.99-.02-67.48-.02v-.16Z"/><path class="cls-6" d="M514.07,302.09c-15.1,.04-26.39-33.3-26.4-48.18,0-14.4,11.55-26.11,25.86-26.2,14.86-.09,26.26,11.26,26.27,26.14,0,14.86-10.97,25.95-25.72,25.98"/></g></g></svg>